<?xml version="1.0" encoding="utf-8"?>
<!-- Generator: Adobe Illustrator 21.1.0, SVG Export Plug-In . SVG Version: 6.00 Build 0)  -->
<svg version="1.1" id="Layer_1" xmlns="http://www.w3.org/2000/svg" xmlns:xlink="http://www.w3.org/1999/xlink" x="0px" y="0px"
	 viewBox="0 0 32.8 33.5" style="enable-background:new 0 0 32.8 33.5;" xml:space="preserve">
<style type="text/css">
	.st0{fill:#FFFFFF;}
	.st1{enable-background:new    ;}
</style>
<path class="st0" d="M1,16.8c0,1.5,1.2,2.7,2.7,2.7h10v10c0,1.5,1.2,2.7,2.7,2.7s2.7-1.2,2.7-2.7v-10h10c1.5,0,2.7-1.2,2.7-2.7
	S30.6,14,29.1,14h-10V4c0-1.5-1.2-2.7-2.7-2.7S13.7,2.5,13.7,4v10h-10C2.2,14,1,15.2,1,16.8z"/>
<text transform="matrix(1 0 0 1 -34.5 81.5)" style="font-family:'HelveticaNeue-Bold'; font-size:5px;">Created by ILKEBRS</text>
<text transform="matrix(1 0 0 1 -34.5 86.5)" style="font-family:'HelveticaNeue-Bold'; font-size:5px;">from the Noun Project</text>
</svg>
