<?xml version="1.0" encoding="utf-8"?>
<!-- Generator: Adobe Illustrator 21.1.0, SVG Export Plug-In . SVG Version: 6.00 Build 0)  -->
<svg version="1.1" id="Layer_1" xmlns="http://www.w3.org/2000/svg" xmlns:xlink="http://www.w3.org/1999/xlink" x="0px" y="0px"
	 viewBox="0 0 301.8 181" style="enable-background:new 0 0 301.8 181;" xml:space="preserve">
<style type="text/css">
	.st0{clip-path:url(#SVGID_2_);}
	.st1{enable-background:new    ;}
	.st2{fill:#231F20;}
	.st3{fill:#7B7D7F;}
	.st4{fill:#626366;}
	.st5{fill:#9C9EA1;}
	.st6{fill:#FFFFFF;}
</style>
<g>
	<g>
		<g>
			<defs>
				<rect id="SVGID_1_" y="-9.2" width="297.7" height="190.2"/>
			</defs>
			<clipPath id="SVGID_2_">
				<use xlink:href="#SVGID_1_"  style="overflow:visible;"/>
			</clipPath>
			<g class="st0">
				<g class="st1">
					<path class="st2" d="M69,173.5c-43.5,0-56.8-10.1-61.6-49.6l37.9-6.1c2.3,18.7,7.9,21.7,23,21.7c14.7,0,21.7-3.4,21.7-23.5
						c0-18.5-7.7-21.2-21.9-21.2c-9.5,0-16,1.6-21.7,4.7l-34.1-9L16,4.1h109.2v48.3H87.2V37.7H52.1l-1.1,29.5
						c6.1-3.6,17.4-5.4,29.1-5.4c37.9,0,53.5,12.9,53.5,53.9C133.5,161.8,112.1,173.5,69,173.5z"/>
				</g>
				<g class="st1">
					<path class="st2" d="M138.9,87.8c0-49.6,6.5-85.7,67-85.7c60.2,0,66.3,36.8,66.3,85.7c0,52.1-6.3,85.5-66.3,85.5
						C145.8,173.3,138.9,138.8,138.9,87.8z M227.7,87.8c0-35-2.5-48-21.9-48c-19.6,0-22.3,13.1-22.3,48c0,35.2,2.7,49.6,22.3,49.6
						C225.2,137.4,227.7,123,227.7,87.8z"/>
				</g>
			</g>
		</g>
	</g>
</g>
<polygon class="st3" points="120.2,96.6 112.4,114.3 139.7,114.3 138,112.6 137.9,111.9 137.9,78.8 112.4,78.8 "/>
<polygon class="st4" points="127.5,106.3 139.7,114.3 139.6,113.5 139.5,112.3 139.4,111.2 139.3,109.8 139.2,108.5 139.2,107.2 
	139.1,106.3 "/>
<polygon class="st3" points="270.7,78.8 270.7,106.3 274.5,106.3 272.3,110.3 271,114.3 297.6,114.3 289.4,96.6 297.6,78.8 "/>
<polygon class="st5" points="283.1,106.3 127.6,106.3 127.5,70.8 283.1,70.8 "/>
<polygon class="st4" points="283.1,106.3 271,114.3 271,113.6 271.1,112.8 271.2,111.5 271.3,110.1 271.4,108.7 271.5,107.1 
	271.5,106.3 "/>
<g class="st1">
	<path class="st6" d="M148.1,84.9h-1.3v8.3h1.3v3H142v-3h1.3v-8.3H142v2.1h-3v-4.9h12.2v4.9h-3V84.9z"/>
</g>
<g class="st1">
	<path class="st6" d="M159.5,93.3h1.3v-2.7h-3.9v2.7h1.3v2.9h-6v-3h1v-7.9h-1v-3.2h6v3.1h-1.3v2.3h3.9v-2.3h-1.3v-3.1h6v3.2h-0.9
		v7.9h0.9v3h-6V93.3z"/>
</g>
<g class="st1">
	<path class="st6" d="M166.5,96.3v-3h1v-7.9h-1v-3.2h11.2v4.9h-3.2v-1.9h-3.4v2.5h2.9v3h-2.9v2.8h3.3v-2.2h3.2v5H166.5z"/>
</g>
<g class="st1">
	<path class="st6" d="M187.8,93.3v3h-5.9v-3h1v-7.9h-1v-3.2h6.9c3.7,0,4.9,1.9,4.9,4.7c0,2.8-0.8,4.9-4.9,4.9h-2.2v1.5H187.8z
		 M188.3,88.9c1.2,0,1.6-0.4,1.6-1.8c0-1.5-0.4-1.9-1.6-1.9h-1.8v3.7H188.3z"/>
</g>
<g class="st1">
	<path class="st6" d="M194.5,89.2c0-3.8,0.9-7.2,6.2-7.2c5.3,0,6.2,3.4,6.2,7.2c0,3.8-0.9,7.2-6.2,7.2
		C195.5,96.4,194.5,93,194.5,89.2z M203.1,89.4c0-2.4-0.3-3.8-2.3-3.8c-2.1,0-2.4,1.4-2.4,3.8c0,2.4,0.3,3.8,2.4,3.8
		C202.8,93.2,203.1,91.7,203.1,89.4z"/>
</g>
<g class="st1">
	<path class="st6" d="M207.8,82.2h6v3.2h-1.3v8.1h3v-2.2h3.2v5h-10.9v-3h1v-7.9h-1V82.2z"/>
	<path class="st6" d="M219.4,82.2h5.9v3.2h-1.1v7.9h1.1v3h-5.9v-3h1.1v-7.9h-1.1V82.2z"/>
	<path class="st6" d="M235.2,84.9h-1.3v8.3h1.3v3H229v-3h1.3v-8.3H229v2.1h-3v-4.9h12.2v4.9h-3V84.9z"/>
</g>
<g class="st1">
	<path class="st6" d="M239.8,82.2h5.9v3.2h-1.1v7.9h1.1v3h-5.9v-3h1.1v-7.9h-1.1V82.2z"/>
</g>
<g class="st1">
	<path class="st6" d="M246.6,89.2c0-4.7,1.7-7.3,5.9-7.2c1.5,0,2.4,0.4,3,1.1v-1h2.8v4.9h-3.1c-0.2-1.4-0.8-1.8-2.1-1.8
		c-2.1,0-2.6,0.9-2.6,3.9c0,3.1,0.3,4.1,2.4,4.1c1.4,0,1.9-0.3,2.2-1.9l3.3,0.6c-0.7,3.8-2.6,4.4-5.7,4.4
		C248.3,96.4,246.6,94,246.6,89.2z"/>
</g>
<g class="st1">
	<path class="st6" d="M259.1,89.2c0-3.8,0.9-7.2,6.2-7.2c5.3,0,6.2,3.4,6.2,7.2c0,3.8-0.9,7.2-6.2,7.2
		C260.1,96.4,259.1,93,259.1,89.2z M267.7,89.4c0-2.4-0.3-3.8-2.3-3.8c-2.1,0-2.4,1.4-2.4,3.8c0,2.4,0.3,3.8,2.4,3.8
		C267.4,93.2,267.7,91.7,267.7,89.4z"/>
</g>
</svg>
