<?xml version="1.0" encoding="utf-8"?>
<!-- Generator: Adobe Illustrator 21.1.0, SVG Export Plug-In . SVG Version: 6.00 Build 0)  -->
<svg version="1.1" id="Layer_1" xmlns="http://www.w3.org/2000/svg" xmlns:xlink="http://www.w3.org/1999/xlink" x="0px" y="0px"
	 viewBox="0 0 243 109.1" style="enable-background:new 0 0 243 109.1;" xml:space="preserve">
<style type="text/css">
	.st0{fill:#FFFFFF;}
</style>
<g>
	<path class="st0" d="M12.4,30.7v17.6H5.9V5h7.4c3.6,0,6.4,0.3,8.2,0.8c1.9,0.5,3.5,1.5,4.9,2.9c2.5,2.4,3.7,5.5,3.7,9.2
		c0,4-1.3,7.1-4,9.4s-6.2,3.5-10.8,3.5L12.4,30.7L12.4,30.7z M12.4,24.7h2.4c6,0,9-2.3,9-6.9c0-4.5-3.1-6.7-9.3-6.7h-2.2L12.4,24.7
		L12.4,24.7z"/>
</g>
<path class="st0" d="M32.3,26.5c0-6.1,2.2-11.4,6.7-15.7c4.5-4.4,9.8-6.6,16.1-6.6c6.2,0,11.5,2.2,15.9,6.6
	c4.4,4.4,6.7,9.7,6.7,15.9S75.5,38.2,71,42.6s-9.9,6.5-16.2,6.5c-5.6,0-10.6-1.9-15.1-5.8C34.8,39,32.3,33.4,32.3,26.5z M38.9,26.5
	c0,4.8,1.6,8.7,4.8,11.8c3.2,3.1,6.9,4.6,11.1,4.6c4.6,0,8.4-1.6,11.5-4.7C69.4,35,71,31.1,71,26.6c0-4.6-1.5-8.5-4.6-11.6
	s-6.9-4.7-11.4-4.7s-8.3,1.6-11.4,4.7S38.9,22,38.9,26.5z"/>
<path class="st0" d="M87.8,5v37.2h12.8v6.1H81.3V5H87.8z"/>
<path class="st0" d="M111.8,5v43.4h-6.5V5H111.8z"/>
<path class="st0" d="M132.9,11.1v37.2h-6.5V11.1h-10V5h26.5v6.1H132.9z"/>
<path class="st0" d="M154,5v43.4h-6.5V5H154z"/>
<g>
	<path class="st0" d="M192.3,7.3V15c-3.8-3.2-7.7-4.7-11.7-4.7c-4.5,0-8.2,1.6-11.3,4.8s-4.6,7.1-4.6,11.7s1.5,8.4,4.6,11.5
		c3.1,3.1,6.8,4.7,11.3,4.7c2.3,0,4.3-0.4,5.9-1.1c0.9-0.4,1.8-0.9,2.8-1.5s2-1.4,3-2.3V46c-3.7,2.1-7.7,3.2-11.8,3.2
		c-6.2,0-11.5-2.2-15.9-6.5c-4.4-4.4-6.5-9.6-6.5-15.8c0-5.5,1.8-10.4,5.5-14.8c4.4-5.3,10.3-8,17.4-8
		C184.9,4.1,188.7,5.2,192.3,7.3z"/>
	<path class="st0" d="M193.3,26.5c0-6.1,2.2-11.4,6.7-15.7c4.5-4.4,9.8-6.6,16.1-6.6c6.2,0,11.5,2.2,15.9,6.6s6.7,9.7,6.7,15.9
		s-2.2,11.5-6.7,15.9s-9.9,6.5-16.2,6.5c-5.6,0-10.6-1.9-15.1-5.8C195.7,39,193.3,33.4,193.3,26.5z M199.9,26.5
		c0,4.8,1.6,8.7,4.8,11.8c3.2,3.1,6.9,4.6,11.1,4.6c4.6,0,8.4-1.6,11.5-4.7c3.1-3.2,4.7-7.1,4.7-11.6c0-4.6-1.5-8.5-4.6-11.6
		s-6.9-4.7-11.4-4.7s-8.3,1.6-11.4,4.7C201.4,18.1,199.9,22,199.9,26.5z"/>
</g>
<path class="st0" d="M115.1,86.4c0.1,4.5-0.6,8.5-3.8,11.9c-3.4,3.7-8.6,5.8-13.6,5.8c-9.9,0-18.4-8.4-18.4-18.2
	c0-10.3,8.4-18.5,18.7-18.5c6.5,0,11.8,3.2,15.5,8.4l-1.9,1.5c-3.2-4.7-8-7.7-13.8-7.7c-8.7,0-16.3,7.6-16.3,16.3
	c0,8.8,7.3,16.3,16.3,16.3c3.8,0,7.6-1.6,10.5-3.9c3.1-2.6,4.2-5.6,4.4-9.5H100v-2.1h15.1V86.4z"/>
<path class="st0" d="M171.2,101.5v2.1H146l21.9-33.7h-19.8v-2.1h23.8L150,101.5H171.2z"/>
<path class="st0" d="M179.3,103.6H177V67.8h2.3V103.6z"/>
<path class="st0" d="M225.1,69.9v13h14.4V85h-14.4v16.4H240v2.1h-17.1V67.8H240v2.1C240,69.9,225.1,69.9,225.1,69.9z"/>
<polygon class="st0" points="14.2,74 14.3,74 26.3,103.6 27.2,103.6 39.2,74 39.3,74 45.5,103.6 47.6,103.6 40.2,67.8 39.5,67.8
	26.7,99.2 14.1,67.8 13.3,67.8 5.9,103.6 8.1,103.6 "/>
<path class="st0" d="M52.4,103.6l4.8-11.8h15.7l4.8,11.8H80L65.5,67.8h-1L50,103.6H52.4z M65.1,72.4l7,17.3h-14L65.1,72.4z"/>
<path class="st0" d="M116.7,103.6l4.8-11.8h15.7l4.8,11.8h2.3l-14.5-35.8h-1l-14.5,35.8H116.7z M129.4,72.4l7,17.3h-14L129.4,72.4z"
	/>
<polygon class="st0" points="184.8,103.6 187.1,103.6 187.1,72.8 216.1,103.6 217.2,103.6 217.2,67.8 214.9,67.8 214.9,99.1
	185.3,67.8 184.8,67.8 "/>
</svg>
