<svg xmlns="http://www.w3.org/2000/svg" xmlns:xlink="http://www.w3.org/1999/xlink" width="190.75" height="38"><image overflow="visible" opacity=".7" width="809" height="168" xlink:href="C396252324704EB2.png" transform="matrix(.24 0 0 .24 -1.336 -.806)"/><linearGradient id="a" gradientUnits="userSpaceOnUse" x1="11.665" y1="2.163" x2="11.665" y2="27.941"><stop offset="0" stop-color="#565656"/><stop offset="1" stop-color="#231f20"/></linearGradient><path fill="url(#a)" d="M22.667 26.074c0 .393-1.548.73-2.574 1.021-1.027.287-1.995.5-3.113.639s-2.179.207-3.286.207c-2.031 0-3.827-.293-5.441-.881-1.615-.59-2.975-1.441-4.104-2.562-1.13-1.117-1.989-2.473-2.589-4.064-.6-1.592-.896-3.391-.896-5.398 0-1.938.318-3.697.953-5.277a11.29 11.29 0 0 1 2.751-4.066c1.2-1.13 2.625-2 4.274-2.612 1.649-.611 3.618-.917 5.672-.917 3.067 0 5.353.508 8.353 1.522v6.09c-2-.576-2.28-1.021-3.492-1.332-1.211-.312-2.602-.467-4.055-.467-2.376 0-4.233.612-5.514 1.834-1.28 1.223-1.935 2.964-1.935 5.225 0 2.353.552 4.135 1.671 5.345 1.119 1.211 2.759 1.816 4.928 1.816a8.55 8.55 0 0 0 1.216-.086c.473-.057.182-.143 1.182-.26V18.5h-4v-5h10v12.574z"/><linearGradient id="b" gradientUnits="userSpaceOnUse" x1="33.036" y1="8.945" x2="33.036" y2="27.873"><stop offset="0" stop-color="#565656"/><stop offset="1" stop-color="#231f20"/></linearGradient><path fill="url(#b)" d="M40.667 26.697c-2 .393-1.927.686-2.976.883a18.98 18.98 0 0 1-3.451.293c-2.1 0-3.886-.369-5.351-1.107s-2.58-1.805-3.341-3.201c-.761-1.395-1.142-3.107-1.142-5.138 0-1.454.207-2.763.622-3.928.416-1.164 1.014-2.163 1.799-2.993a7.8 7.8 0 0 1 2.821-1.903c1.096-.438 2.323-.657 3.684-.657 1.73 0 3.201.357 4.412 1.072s2.248 1.765 2.871 3.149c.623 1.384 1.053 3.057 1.053 5.018V19.5h-11.14c.185 1 .646 2.187 1.384 2.681.738.498 1.857.798 3.356.798 1.039 0 1.995-.074 2.837-.27.842-.195 1.561-.498 2.561-.961v4.949zm-7.405-13.282c-1.5 0-2.399 1.085-2.699 3.085h5.052c-.092-1-.329-1.865-.709-2.338-.381-.473-.929-.747-1.644-.747"/><linearGradient id="c" gradientUnits="userSpaceOnUse" x1="48.167" y1="4.031" x2="48.167" y2="27.873"><stop offset="0" stop-color="#565656"/><stop offset="1" stop-color="#231f20"/></linearGradient><path fill="url(#c)" d="M54.667 27.078c-1 .254-.893.449-1.62.588-.727.137-1.246.207-2.029.207-2.169 0-3.684-.549-4.802-1.645-1.119-1.094-1.549-2.691-1.549-4.793V14.5h-3v-5h3V5.45l6-1.419V9.5h4v5h-4v6.07c0 1.432.477 2.146 1.931 2.146.738 0 1.069-.172 2.069-.52v4.882z"/><linearGradient id="d" gradientUnits="userSpaceOnUse" x1="68.167" y1="2.499" x2="68.167" y2="27.5"><stop offset="0" stop-color="#565656"/><stop offset="1" stop-color="#231f20"/></linearGradient><path fill="url(#d)" d="M64.667 2.5h7v25h-7z"/><linearGradient id="e" gradientUnits="userSpaceOnUse" x1="82.667" y1="8.972" x2="82.667" y2="27.5"><stop offset="0" stop-color="#565656"/><stop offset="1" stop-color="#231f20"/></linearGradient><path fill="url(#e)" d="M82.926 14.17c-.969 0-1.259.393-2.259 1.177V27.5h-7v-18h6.515l.311 2.059c1.43-1.708 3.184-2.586 5.26-2.586 1.96 0 3.378.598 4.428 1.821s1.486 2.975 1.486 5.28V27.5h-7V16.281c0-1.407-.495-2.111-1.741-2.111"/><linearGradient id="f" gradientUnits="userSpaceOnUse" x1="101.073" y1="8.945" x2="101.073" y2="27.873"><stop offset="0" stop-color="#565656"/><stop offset="1" stop-color="#231f20"/></linearGradient><path fill="url(#f)" d="M100.07 27.873c-2.215 0-4.403-.404-6.403-1.211v-4.914c1 .508 1.975.9 2.943 1.178a10.75 10.75 0 0 0 2.855.414c.899 0 1.604-.104 2.032-.311.427-.209.662-.52.662-.936 0-.393-.187-.674-.578-.848a8.707 8.707 0 0 0-1.448-.467c-1.545-.367-2.782-.795-3.716-1.28-.934-.485-1.607-1.096-2.023-1.834-.415-.738-.622-1.649-.622-2.734 0-1.222.317-2.284.952-3.184.634-.899 1.551-1.591 2.75-2.076 1.2-.484 2.63-.726 4.291-.726 1.084 0 2.085.109 3.123.328 1.038.22 1.777.537 2.777.952v4.879c-1-.507-1.514-.905-2.449-1.193-.934-.289-1.808-.433-2.685-.433-.808 0-1.422.104-1.871.312-.45.207-.667.508-.667.899a.86.86 0 0 0 .193.571c.127.15.348.277.659.381.312.104.745.225 1.297.363 1.5.323 2.718.732 3.653 1.229.935.497 1.613 1.113 2.041 1.852.426.738.64 1.638.64 2.699 0 1.314-.323 2.422-.968 3.32-.646.9-1.673 1.588-2.906 2.061-1.233.472-2.801.709-4.532.709"/><linearGradient id="g" gradientUnits="userSpaceOnUse" x1="118.992" y1="8.972" x2="118.992" y2="35.5"><stop offset="0" stop-color="#565656"/><stop offset="1" stop-color="#231f20"/></linearGradient><path fill="url(#g)" d="M119.598 27.873c-.485 0-1.05-.041-1.501-.121-.449-.082-1.43-.201-1.43-.363V35.5h-7v-26h6.263l.276 1.92c1.246-1.614 2.85-2.448 4.811-2.448 1.498 0 2.791.356 3.874 1.093 1.084.739 1.927 1.782 2.527 3.143.599 1.361.899 2.972.899 4.84 0 2.029-.353 3.776-1.056 5.241-.704 1.465-1.707 2.595-3.011 3.39-1.303.797-2.854 1.194-4.652 1.194m-.583-13.703c-.9 0-1.348.346-2.348 1.038v7.059c0 .139.646.236.912.295.264.057.607.086.931.086 1.039 0 1.858-.375 2.413-1.125.553-.75.842-1.828.842-3.235 0-1.337-.268-2.358-.718-3.062-.449-.704-1.155-1.056-2.032-1.056"/><linearGradient id="h" gradientUnits="userSpaceOnUse" x1="133.367" y1="1.194" x2="133.367" y2="27.5"><stop offset="0" stop-color="#565656"/><stop offset="1" stop-color="#231f20"/></linearGradient><path fill="url(#h)" d="M133.435 1.194c1.13 0 2.019.272 2.664.813.646.542.969 1.309.969 2.301 0 .992-.322 1.76-.969 2.301-.646.542-1.534.813-2.664.813-1.131 0-2.013-.271-2.646-.813-.635-.542-.952-1.309-.952-2.301 0-.992.317-1.758.952-2.301.633-.541 1.515-.813 2.646-.813M129.667 9.5h7v18h-7v-18z"/><linearGradient id="i" gradientUnits="userSpaceOnUse" x1="145.167" y1="9.11" x2="145.167" y2="27.5"><stop offset="0" stop-color="#565656"/><stop offset="1" stop-color="#231f20"/></linearGradient><path fill="url(#i)" d="M149.791 14.62c-.83 0-1.665.15-2.286.45-.623.3-.838.773-1.838 1.418V27.5h-7v-18h6.279l.415 2.82c1.178-2.123 2.524-3.209 4.417-3.209.783 0 .889.124 1.889.423v5.675c0-.208-.453-.357-.834-.45s-.604-.139-1.042-.139"/><linearGradient id="j" gradientUnits="userSpaceOnUse" x1="161.065" y1="8.945" x2="161.065" y2="27.873"><stop offset="0" stop-color="#565656"/><stop offset="1" stop-color="#231f20"/></linearGradient><path fill="url(#j)" d="M168.667 26.697c-1 .393-1.896.686-2.945.883a18.833 18.833 0 0 1-3.438.293c-2.1 0-3.879-.369-5.344-1.107s-2.577-1.805-3.339-3.201c-.76-1.395-1.14-3.107-1.14-5.138 0-1.454.208-2.763.624-3.928.415-1.164 1.015-2.163 1.8-2.993a7.8 7.8 0 0 1 2.819-1.903c1.096-.438 2.322-.657 3.684-.657 1.729 0 3.201.357 4.413 1.072a6.943 6.943 0 0 1 2.842 3.149c.622 1.384 1.023 3.057 1.023 5.018V19.5h-11.08c.185 1 .646 2.187 1.384 2.681.738.498 1.856.798 3.357.798 1.038 0 1.966-.074 2.808-.27s1.531-.498 2.531-.961v4.949zm-7.346-13.282c-1.5 0-2.4 1.085-2.7 3.085h5.053c-.093-1-.329-1.865-.71-2.338-.38-.473-.928-.747-1.643-.747"/><linearGradient id="k" gradientUnits="userSpaceOnUse" x1="179.683" y1="1.5" x2="179.683" y2="27.884"><stop offset="0" stop-color="#565656"/><stop offset="1" stop-color="#231f20"/></linearGradient><path fill="url(#k)" d="M183.085 27.5l-.276-1.94c-.646.83-1.373 1.411-2.18 1.78-.808.369-1.685.544-2.63.544-1.499 0-2.792-.376-3.876-1.112-1.085-.74-1.926-1.796-2.525-3.169-.601-1.373-.9-2.982-.9-4.829 0-2.03.352-3.778 1.056-5.243s1.707-2.596 3.011-3.392c1.303-.795 2.612-1.193 4.411-1.193.992 0 1.492.162 2.492.484V1.5h7v26h-5.583zm-5.848-8.97c0 1.362.225 2.388.675 3.079.449.693.871 1.039 1.747 1.039.9 0 2.008-.346 2.008-1.039v-7.058c0-.139-.306-.236-.571-.294a3.106 3.106 0 0 0-.761-.086c-1.039 0-1.774.375-2.328 1.125-.554.748-.77 1.827-.77 3.234"/></svg>